<svg xmlns="http://www.w3.org/2000/svg" width="341.23" height="332.34" viewBox="0 0 341.23 332.34"><path d="M667.5,496.32V206.47a.31.31,0,0,0-.57-.16L581.4,354.45,501.93,492.1a.29.29,0,0,0,0,.3c10.84,21.1,65,28.47,80.2,31,31.38,5.14,85.38,5.14,85.38,5.14Z" transform="translate(-496.89 -201.16)" fill="none" stroke="#bde038" stroke-miterlimit="10" stroke-width="10"/><path d="M667.5,496.32V206.47a.31.31,0,0,1,.57-.16L753.6,354.45,833.07,492.1a.29.29,0,0,1,0,.3c-10.84,21.1-65,28.47-80.2,31-31.38,5.14-85.38,5.14-85.38,5.14Z" transform="translate(-496.89 -201.16)" fill="none" stroke="#818274" stroke-miterlimit="10" stroke-width="10"/></svg>